<?xml version="1.0" encoding="utf-8"?>
<!-- Generator: Adobe Illustrator 23.1.0, SVG Export Plug-In . SVG Version: 6.00 Build 0)  -->
<svg version="1.1" id="Layer_1" xmlns="http://www.w3.org/2000/svg" xmlns:xlink="http://www.w3.org/1999/xlink" x="0px" y="0px"
	 viewBox="0 0 900 900" style="enable-background:new 0 0 900 900;" xml:space="preserve">
<style type="text/css">
	.st0{fill-rule:evenodd;clip-rule:evenodd;fill:#F5B9B9;}
	.st1{fill-rule:evenodd;clip-rule:evenodd;fill:#DB5656;}
	.st2{fill:#250E1E;}
	.st3{fill-rule:evenodd;clip-rule:evenodd;fill:#EEF1F2;}
</style>
<g id="Layer_x0020_1">
	<circle class="st0" cx="450" cy="451" r="450"/>
	<path class="st1" d="M425.9,298.9C425.9,298.8,425.9,298.8,425.9,298.9z M415.9,275.1c0.1,9,3.7,17.2,9.5,23.3
		C425.6,298.5,416,289.4,415.9,275.1z M210,338.1h480v-44.2c0-6.6-2.7-12.7-7.1-17c-4.4-4.4-10.4-7.1-17-7.1h-4v5.1
		c0,9.4-3.8,17.9-10,24.1c-6.2,6.2-14.7,10-24.1,10s-17.9-3.8-24.1-10c-6.2-6.2-10-14.7-10-24.1v-5.1H484.1v-16v-5.1
		c0-9.4-3.8-17.9-10-24.1c-6.2-6.2-14.7-10-24.1-10c-9.4,0-17.9,3.8-24.1,10c-6.2,6.2-10,14.7-10,24.1v5.1v16H306.4v5.1
		c0,9.4-3.8,17.9-10,24.1c-6.2,6.2-14.7,10-24.1,10c-9.4,0-17.9-3.8-24.1-10c-6.2-6.2-10-14.7-10-24.1v-5.1h-4
		c-6.6,0-12.7,2.7-17,7.1c-4.4,4.4-7.1,10.4-7.1,17L210,338.1L210,338.1z M437.2,287.6C437.2,287.6,437.2,287.5,437.2,287.6z"/>
	<path class="st2" d="M234.1,253.7h12c4.4,0,8,3.6,8,8v13.1c0,5,2,9.5,5.3,12.8c3.3,3.3,7.8,5.3,12.8,5.3c5,0,9.5-2,12.8-5.3
		s5.3-7.8,5.3-12.8v-13.1c0-4.4,3.6-8,8-8h125.5c4.4,0,8,3.6,8,8v13.1c0,5,2,9.5,5.3,12.8c3.3,3.3,7.8,5.3,12.8,5.3
		c5,0,9.5-2,12.8-5.3c3.3-3.3,5.3-7.8,5.3-12.8v-13.1c0-4.4,3.6-8,8-8h125.5c4.4,0,8,3.6,8,8v13.1c0,5,2,9.5,5.3,12.8
		s7.8,5.3,12.8,5.3s9.5-2,12.8-5.3s5.3-7.8,5.3-12.8v-13.1c0-4.4,3.6-8,8-8h12c11,0,21.1,4.5,28.3,11.8c7.3,7.3,11.8,17.3,11.8,28.3
		v353.4c0,11-4.5,21.1-11.8,28.3c-7.3,7.3-17.3,11.8-28.3,11.8H234.1c-11,0-21.1-4.5-28.3-11.8c-7.3-7.3-11.8-17.3-11.8-28.3V293.9
		c0-11,4.5-21.1,11.8-28.3C213.1,258.2,223.1,253.7,234.1,253.7L234.1,253.7z M238.2,269.7h-4c-6.6,0-12.7,2.7-17,7.1
		c-4.4,4.4-7.1,10.4-7.1,17v353.4c0,6.6,2.7,12.7,7.1,17c4.4,4.4,10.4,7.1,17,7.1h431.7c6.6,0,12.7-2.7,17-7.1
		c4.4-4.4,7.1-10.4,7.1-17V293.9c0-6.6-2.7-12.7-7.1-17c-4.4-4.4-10.4-7.1-17-7.1h-4v5.1c0,9.4-3.8,17.9-10,24.1
		c-6.2,6.2-14.7,10-24.1,10s-17.9-3.8-24.1-10c-6.2-6.2-10-14.7-10-24.1v-5.1H484.1v5.1c0,9.4-3.8,17.9-10,24.1s-14.7,10-24.1,10
		c-9.4,0-17.9-3.8-24.1-10c-6.2-6.2-10-14.7-10-24.1v-5.1H306.4v5.1c0,9.4-3.8,17.9-10,24.1c-6.2,6.2-14.7,10-24.1,10
		c-9.4,0-17.9-3.8-24.1-10c-6.2-6.2-10-14.7-10-24.1L238.2,269.7L238.2,269.7z"/>
	<path class="st2" d="M272.3,214.6c9.4,0,17.9,3.8,24.1,10s10,14.7,10,24.1v26.1c0,18.8-15.3,34.1-34.1,34.1
		c-9.4,0-17.9-3.8-24.1-10c-6.2-6.2-10-14.7-10-24.1v-26.1c0-9.4,3.8-17.9,10-24.1C254.4,218.4,262.9,214.6,272.3,214.6z
		 M285.1,235.9c-3.3-3.3-7.8-5.3-12.8-5.3s-9.5,2-12.8,5.3s-5.3,7.8-5.3,12.8v26.1c0,5,2,9.5,5.3,12.8s7.8,5.3,12.8,5.3
		c10,0,18.1-8.2,18.1-18.1v-26.1C290.4,243.7,288.4,239.2,285.1,235.9L285.1,235.9z"/>
	<path class="st2" d="M450,214.6c9.4,0,17.9,3.8,24.1,10c6.2,6.2,10,14.7,10,24.1v26.1c0,9.4-3.8,17.9-10,24.1
		c-6.2,6.2-14.7,10-24.1,10c-9.4,0-17.9-3.8-24.1-10c0,0-0.4-0.5-0.5-0.5c-5.9-6.1-9.5-14.5-9.5-23.6v-26.1c0-9.4,3.8-17.9,10-24.1
		C432.1,218.4,440.6,214.6,450,214.6L450,214.6z M462.8,235.9c-7.1-7.1-18.5-7.1-25.6,0c-3.3,3.3-5.3,7.8-5.3,12.8v26.1
		c0,4.9,1.9,9.3,5.3,12.8l0,0c3.3,3.3,7.8,5.3,12.8,5.3s9.5-2,12.8-5.3c3.3-3.3,5.3-7.8,5.3-12.8v-26.1
		C468.1,243.7,466.1,239.2,462.8,235.9L462.8,235.9z"/>
	<path class="st2" d="M627.7,214.6c9.4,0,17.9,3.8,24.1,10c6.2,6.2,10,14.7,10,24.1v26.1c0,18.8-15.3,34.1-34.1,34.1
		c-9.4,0-17.9-3.8-24.1-10c-6.2-6.2-10-14.7-10-24.1v-26.1c0-9.4,3.8-17.9,10-24.1C609.8,218.4,618.3,214.6,627.7,214.6z
		 M640.5,235.9c-3.3-3.3-7.8-5.3-12.8-5.3s-9.5,2-12.8,5.3s-5.3,7.8-5.3,12.8v26.1c0,5,2,9.5,5.3,12.8s7.8,5.3,12.8,5.3
		c10,0,18.1-8.2,18.1-18.1v-26.1C645.8,243.7,643.8,239.2,640.5,235.9L640.5,235.9z"/>
	<path class="st2" d="M202,338.1c-4.4,0-8,3.6-8,8c0,4.4,3.6,8,8,8h496c4.4,0,8-3.6,8-8c0-4.4-3.6-8-8-8H202z"/>
	<path class="st2" d="M242.7,409.3h62.3c4.4,0,8,3.6,8,8v62.3c0,4.4-3.6,8-8,8h-62.3c-4.4,0-8-3.6-8-8v-62.3
		C234.7,412.9,238.2,409.3,242.7,409.3L242.7,409.3z M296.9,425.3h-46.3v46.3h46.3V425.3z"/>
	<path class="st2" d="M360.1,409.3h62.3c4.4,0,8,3.6,8,8v62.3c0,4.4-3.6,8-8,8h-62.3c-4.4,0-8-3.6-8-8v-62.3
		C352.1,412.9,355.7,409.3,360.1,409.3z M414.4,425.3h-46.3v46.3h46.3L414.4,425.3L414.4,425.3z"/>
	<path class="st2" d="M477.6,409.3h62.3c4.4,0,8,3.6,8,8v62.3c0,4.4-3.6,8-8,8h-62.3c-4.4,0-8-3.6-8-8v-62.3
		C469.6,412.9,473.2,409.3,477.6,409.3z M531.9,425.3h-46.3v46.3h46.3V425.3z"/>
	<path class="st2" d="M595.1,409.3h62.3c4.4,0,8,3.6,8,8v62.3c0,4.4-3.6,8-8,8h-62.3c-4.4,0-8-3.6-8-8v-62.3
		C587.1,412.9,590.7,409.3,595.1,409.3z M649.3,425.3h-46.3v46.3h46.3V425.3z"/>
	<path class="st2" d="M242.7,536.8h62.3c4.4,0,8,3.6,8,8v62.3c0,4.4-3.6,8-8,8h-62.3c-4.4,0-8-3.6-8-8v-62.3
		C234.7,540.4,238.2,536.8,242.7,536.8L242.7,536.8z M296.9,552.9h-46.3v46.3h46.3V552.9z"/>
	<path class="st2" d="M360.1,536.8h62.3c4.4,0,8,3.6,8,8v62.3c0,4.4-3.6,8-8,8h-62.3c-4.4,0-8-3.6-8-8v-62.3
		C352.1,540.4,355.7,536.8,360.1,536.8z M414.4,552.9h-46.3v46.3h46.3L414.4,552.9L414.4,552.9z"/>
	<path class="st2" d="M477.6,536.8h62.3c4.4,0,8,3.6,8,8v62.3c0,4.4-3.6,8-8,8h-62.3c-4.4,0-8-3.6-8-8v-62.3
		C469.6,540.4,473.2,536.8,477.6,536.8z M531.9,552.9h-46.3v46.3h46.3V552.9z"/>
	<polygon class="st1" points="485.6,471.6 531.9,471.6 531.9,425.3 485.6,425.3 	"/>
	<polygon class="st1" points="531.9,552.9 485.6,552.9 485.6,599.1 531.9,599.1 	"/>
	<polygon class="st1" points="603.1,471.6 649.3,471.6 649.3,425.3 603.1,425.3 	"/>
	<polygon class="st1" points="414.4,471.6 414.4,425.3 368.1,425.3 368.1,471.6 	"/>
	<polygon class="st1" points="414.4,552.9 368.1,552.9 368.1,599.1 414.4,599.1 	"/>
	<polygon class="st1" points="296.9,599.1 296.9,552.9 250.7,552.9 250.7,599.1 	"/>
	<polygon class="st1" points="250.7,471.6 296.9,471.6 296.9,425.3 250.7,425.3 	"/>
	<path class="st3" d="M312.9,417.3v62.3c0,4.4-3.6,8-8,8h-62.3c-4.4,0-8-3.6-8-8v-62.3c0-4.4,3.6-8,8-8h62.3
		C309.3,409.3,312.9,412.9,312.9,417.3z M690,354.1H210v293.2c0,6.6,2.7,12.7,7.1,17c4.4,4.4,10.4,7.1,17,7.1h431.7
		c6.6,0,12.7-2.7,17-7.1c4.4-4.4,7.1-10.4,7.1-17L690,354.1L690,354.1z M242.7,536.8h62.3c4.4,0,8,3.6,8,8v62.3c0,4.4-3.6,8-8,8
		h-62.3c-4.4,0-8-3.6-8-8v-62.3C234.7,540.4,238.2,536.8,242.7,536.8L242.7,536.8z M352.1,479.6v-62.3c0-4.4,3.6-8,8-8h62.3
		c4.4,0,8,3.6,8,8v62.3c0,4.4-3.6,8-8,8h-62.3C355.7,487.6,352.1,484,352.1,479.6z M360.1,536.8h62.3c4.4,0,8,3.6,8,8v62.3
		c0,4.4-3.6,8-8,8h-62.3c-4.4,0-8-3.6-8-8v-62.3C352.1,540.4,355.7,536.8,360.1,536.8z M469.6,479.6v-62.3c0-4.4,3.6-8,8-8h62.3
		c4.4,0,8,3.6,8,8v62.3c0,4.4-3.6,8-8,8h-62.3C473.2,487.6,469.6,484,469.6,479.6z M587.1,479.6v-62.3c0-4.4,3.6-8,8-8h62.3
		c4.4,0,8,3.6,8,8v62.3c0,4.4-3.6,8-8,8h-62.3C590.7,487.6,587.1,484,587.1,479.6z M477.6,536.8h62.3c4.4,0,8,3.6,8,8v62.3
		c0,4.4-3.6,8-8,8h-62.3c-4.4,0-8-3.6-8-8v-62.3C469.6,540.4,473.2,536.8,477.6,536.8L477.6,536.8z"/>
	<path class="st3" d="M609.6,274.8c0,5,2,9.5,5.3,12.8s7.8,5.3,12.8,5.3c5,0,9.5-2,12.8-5.3c3.3-3.3,5.3-7.8,5.3-12.8v-13.1v-13.1
		c0-5-2-9.5-5.3-12.8c-3.3-3.3-7.8-5.3-12.8-5.3s-9.5,2-12.8,5.3s-5.3,7.8-5.3,12.8v13.1V274.8L609.6,274.8z"/>
	<path class="st3" d="M290.4,274.8v-13.1v-13.1c0-5-2-9.5-5.3-12.8c-3.3-3.3-7.8-5.3-12.8-5.3s-9.5,2-12.8,5.3s-5.3,7.8-5.3,12.8
		v13.1v13.1c0,5,2,9.5,5.3,12.8s7.8,5.3,12.8,5.3c5,0,9.5-2,12.8-5.3C288.3,284.3,290.4,279.8,290.4,274.8L290.4,274.8z"/>
	<path class="st3" d="M462.8,235.9c-7.1-7.1-18.5-7.1-25.6,0c-3.3,3.3-5.3,7.8-5.3,12.8v26.1c0,4.9,1.9,9.3,5.3,12.8
		c3.3,3.3,7.8,5.3,12.8,5.3s9.5-2,12.8-5.3c3.3-3.3,5.3-7.8,5.3-12.8v-26.1C468.1,243.7,466.1,239.2,462.8,235.9L462.8,235.9z"/>
</g>
</svg>
