<svg width="42" height="43" viewBox="0 0 42 43" fill="none" xmlns="http://www.w3.org/2000/svg">
<rect y="0.492188" width="42" height="42" rx="21" fill="red"/>
<path d="M27.8571 29.4922C27.5143 29.4922 27.2857 29.3779 27.0571 29.1493L21 23.0922L14.9429 29.1493C14.4857 29.6065 13.8 29.6065 13.3429 29.1493C12.8857 28.6922 12.8857 28.0065 13.3429 27.5493L19.4 21.4922L13.3429 15.435C12.8857 14.9779 12.8857 14.2922 13.3429 13.835C13.8 13.3779 14.4857 13.3779 14.9429 13.835L21 19.8922L27.0571 13.835C27.5143 13.3779 28.2 13.3779 28.6571 13.835C29.1143 14.2922 29.1143 14.9779 28.6571 15.435L22.6 21.4922L28.6571 27.5493C29.1143 28.0065 29.1143 28.6922 28.6571 29.1493C28.4286 29.3779 28.2 29.4922 27.8571 29.4922Z" fill="white"/>
</svg>
